<svg width="38" height="38" viewBox="0 0 38 38" fill="none" xmlns="http://www.w3.org/2000/svg">
<path d="M15.9051 17.6937C16.1648 16.766 16.4172 15.2 16.8848 15.2C17.5008 15.3336 17.5973 16.9367 18.2652 17.9164C18.6066 16.1723 18.6586 11.6004 19.3117 11.4816C19.9797 11.4297 20.7738 16.4172 20.9445 17.2336C21.6793 17.5379 24.5738 17.7234 24.5738 17.7234C24.7148 18.2652 22.7926 18.2875 21.6051 18.3023C21.2637 19.4008 21.2043 20.3582 20.759 20.3805C20.4102 20.3953 20.1504 18.243 19.4602 16.6992L18.7625 21.5605C18.4359 22.5254 17.6121 19.8906 17.1371 18.6437C16.8922 18.6363 12.5059 18.525 13.6043 18.0648L15.9051 17.6937ZM24.0469 33.25C25.6203 33.25 25.6203 30.875 24.0469 30.875H13.9531C12.3797 30.875 12.3797 33.25 13.9531 33.25H24.0469ZM22.2656 38C23.8391 38 23.8391 35.625 22.2656 35.625H15.7344C14.1609 35.625 14.1609 38 15.7344 38H22.2656ZM24.8039 27.498C25.0414 26.0953 25.1898 24.7965 25.6871 23.8762C26.2734 22.7852 26.882 21.7906 27.4684 20.8332C29.2941 17.8348 30.875 15.252 30.875 11.5187C30.875 5.16562 25.5461 0 19 0C12.4539 0 7.125 5.16562 7.125 11.5187C7.125 15.2445 8.70586 17.8348 10.5316 20.8332C11.118 21.7906 11.7191 22.7852 12.3129 23.8762C12.8102 24.8039 12.9586 26.0879 13.1961 27.5055C13.4559 29.0641 15.8754 28.6707 15.6156 27.127C15.3484 25.5164 15.2 24.1062 14.4801 22.7777C12.0605 18.2949 9.57422 15.6824 9.57422 11.5187C9.57422 6.4793 13.8047 2.375 19 2.375C24.1953 2.375 28.4258 6.4793 28.4258 11.5187C28.4258 15.6824 25.9395 18.2949 23.5199 22.7703C22.8 24.1062 22.6516 25.5461 22.3844 27.1195C22.132 28.6484 24.5367 29.0789 24.8039 27.498Z" fill="url(#paint0_linear_261_49)"/>
<defs>
<linearGradient id="paint0_linear_261_49" x1="19" y1="0" x2="19" y2="38" gradientUnits="userSpaceOnUse">
<stop stop-color="#AFADAD"/>
<stop offset="1" stop-color="#545454"/>
</linearGradient>
</defs>
</svg>
