<svg width="38" height="37" viewBox="0 0 38 37" fill="none" xmlns="http://www.w3.org/2000/svg">
<path d="M15.1424 18.8267C15.5135 19.188 16.115 19.188 16.4861 18.8267L17.1576 18.1728C17.5287 17.8115 17.5287 17.2258 17.1576 16.8645L15.0367 14.8L17.157 12.7349C17.5281 12.3736 17.5281 11.788 17.157 11.4267L16.4855 10.7728C16.1144 10.4115 15.5129 10.4115 15.1418 10.7728L11.6779 14.1456C11.3068 14.5069 11.3068 15.0925 11.6779 15.4539L15.1424 18.8267ZM20.843 18.1734L21.5145 18.8272C21.8856 19.1886 22.4871 19.1886 22.8582 18.8272L26.3221 15.4545C26.6932 15.0931 26.6932 14.5075 26.3221 14.1462L22.8582 10.7734C22.4871 10.412 21.8856 10.412 21.5145 10.7734L20.843 11.4272C20.4719 11.7886 20.4719 12.3742 20.843 12.7355L22.9633 14.8L20.843 16.8651C20.4719 17.2264 20.4719 17.812 20.843 18.1734ZM37.05 27.75H22.6539C22.61 28.8953 21.7805 29.6 20.71 29.6H17.1C15.9903 29.6 15.1394 28.59 15.1543 27.75H0.95C0.4275 27.75 0 28.1663 0 28.675V29.6C0 31.635 1.71 33.3 3.8 33.3H34.2C36.29 33.3 38 31.635 38 29.6V28.675C38 28.1663 37.5725 27.75 37.05 27.75ZM34.2 6.47501C34.2 4.94876 32.9175 3.70001 31.35 3.70001H6.65C5.0825 3.70001 3.8 4.94876 3.8 6.47501V25.9H34.2V6.47501ZM30.4 22.2H7.6V7.40001H30.4V22.2Z" fill="url(#paint0_linear_261_59)"/>
<defs>
<linearGradient id="paint0_linear_261_59" x1="19" y1="3.70001" x2="19" y2="33.3" gradientUnits="userSpaceOnUse">
<stop stop-color="#AFADAD"/>
<stop offset="1" stop-color="#545454"/>
</linearGradient>
</defs>
</svg>
